<?xml version="1.0" encoding="UTF-8"?>
<svg id="Camada_2" data-name="Camada 2" xmlns="http://www.w3.org/2000/svg" viewBox="0 0 432.94 266.51">
  <defs>
    <style>
      .cls-1 {
        fill: #fff;
      }

      .cls-2 {
        fill: none;
      }
    </style>
  </defs>
  <g id="Camada_1-2" data-name="Camada 1">
    <g>
      <polygon class="cls-1" points="225.37 0 233.67 122.51 234.16 122.51 294.22 0 356.72 0 320.34 172.84 277.4 171.97 310.09 35.38 309.6 35.38 240.75 171.85 205.84 171.85 195.58 35.38 195.1 35.38 169.22 171.85 126.24 171.85 154.66 38.51 73.73 38.51 66.9 71 117.15 71 109.82 105.66 59.58 105.66 45.41 171.85 0 171.85 36.38 0 225.37 0"/>
      <g>
        <polygon class="cls-2" points="277.4 171.97 330.53 172.42 365.11 116.14 373.46 172.76 432.94 173.29 379.98 208.7 387.99 265.41 342.55 230.77 282.58 266.51 310.64 206.23 277.4 171.97"/>
        <path class="cls-1" d="m360.36,139.22l5.12,34.69,1,6.75,6.92.06,33.62.3-31.56,21.1-4.16,2.78.69,4.9,5.28,37.39-29.77-22.7-4.38-3.34-4.74,2.82-37.53,22.36,17.12-36.77,2.29-4.91-3.79-3.91-20.03-20.64,34.01.29,4.59.04,2.38-3.87,22.93-37.32m4.75-23.08l-34.58,56.28-53.13-.45,33.25,34.26-28.07,60.28,59.98-35.74,45.43,34.65-8.01-56.72,52.96-35.41-59.48-.53-8.35-56.63h0Z"/>
      </g>
    </g>
  </g>
</svg>